/* XPM */
static char *btemp[] = {
/* columns rows colors chars-per-pixel */
"50 50 7 1",
"  c #0E3885",
". c #0E419F",
"X c #0F48B0",
"o c #1A48CB",
"O c #2A67D7",
"+ c gray100",
"@ c None",
/* pixels */
"@@@@@@@@@@@@@@@@@@@@@@@@@@@@@@@@@@@@@@@@@@@@@@@@@@",
"@@@@@@@@@@@@@@@@@@@@@@@@@@@@@@@@@@@@@@@@@@@@@@@@@@",
"@@@@@@@@@@@@@@@@@@@@@@@@@@@@@@@@@@@@@@@@@@@@@@@@@@",
"@@@@@@@@@@@@@@@@@@@@@@@@+++++++++++++++@@@@@@@+++@",
"@@@@@@@@@@@@@@@@@@@@@+++OOOOooooooooooo+++@@++OXX+",
"@@@@@@@@@@@@@@@@@@@++OOOOoooooXXXXXXXXXXXX++Ooo.+@",
"@@@@@@@@@@@@@@@@@++OOoooXXooXXX..XXXXXX.XXOOo..+@@",
"@@@@@@@@@@@@@@@@+OOoXXXX................XOOo..+@@@",
"@@@@@@@@@@@@@@@+OOoXX....++++++++++++++XOOoXX..+@@",
"@@@@@@@@@@@@@++OoXXX...++@@@@@@@@@@@@@+Oo XXX..+@@",
"@@@@@@@@@@@@+OOoXX...++@@@@@@@@@@@@@@+OX   XXX.+@@",
"@@@@@@@@@@@+OOoXX..++@@@@@@@@@@@@@@@+Oo. ++OOX. +@",
"@@@@@@@@@@+OOoXX..+@@@@@@@@@@@@@@@@+Oo. .+@+OX. +@",
"@@@@@@@@@+OOXXX  +@@@@@@@@@@@@@@@@+OOX  +@@+OX. +@",
"@@@@@@@@+OOoXX  +@@@@@@@@@@@@@@@@@+OX  +@@@+OXX +@",
"@@@@@@@+OOoXX. +@@@@@@@@@@@@@@@@@+OX. +@@@@+OXX +@",
"@@@@@@+OOoXX. +@@@@@@@@@@@@@@@@@+Oo.  +@@@@+OX. +@",
"@@@@@@+OooX. +@@@@@@@@@@@@@@@@@@+Oo  +@@@@+OOo. +@",
"@@@@@+OOoo.  +@@@@@@@@@@@@@@@@@+oo. +@@@@@+Ooo  +@",
"@@@@+OOooX. +@@@@@@@@@@@@@@@@@@+oX  +@@@@++Ooo +@@",
"@@@+OOOoXX +@@@@@@@@@@@@@@@@@@+oo. .+@@@++Ooo. +@@",
"@@@+OOooX. +@@@@@@@@@@@@@@@@@+ooX  +++++OOooo  +@@",
"@@+OOOoXX +@@@@@@@@@@@@@@@@@@+oXX +++OOOOooo  +@@@",
"@@+OXoXX. +@@@@@@@@@@@@@@@@@+OOXX ++OOoOooo. +@@@@",
"@+OOXooX +@@@@@@@@@@@@@@@@@@+OXX +@+XoXX.  ++@@@@@",
"@+OOXooX.+@@@@@@@@@@@@@@@@@+OoX  +@@+...X ++@@@@@@",
"@+OOXoXX.+@@@@@@@@@@@@@@@@@+OX. +@@@@+++XX. +@@@@@",
"@+OOXXX.+@@@@@@@@@@@@@@@@@+OoX +@@@@@@@@+X.. ++@@@",
"@+OOXXX.+@@@@@@@@@@@@@@@@@+oX. +@@@+++@@+OX..  +@@",
"@+OOXX..+@@@@@@@@@@@@@@@@+OXX.+++++...+@@+OXX. +@@",
"@+OOXX..+@@@@@@@@@@@@@@@+OoX.++++X...+@@@+OXX.  +@",
"@+OOXX.+@@@@@@@@@@@@@@@@+OX. +OOX..++@@@@+OXX.  +@",
"@+OOXX.+@@@@@@@@@@@@@@@+OoX.+OOX..+@@@@@@+OXX.  +@",
"@+OOXX.+@@@@@@@@@@@@@@+OOX. +Oo..+@@@@@@@+OoX.  +@",
"@+OOoX.+@@@@@@@@@@@@@@+OX. ++OX.+@@@@@@@@+OoXX  +@",
"@+OOoX.+@@@@@@@@@@@@@+OOX  +Oo..+@@@@@@@+OOoXX  +@",
"@+OOXX.+@@@@@@@@@@@@@+Oo. ++Oo.+@@@@@@@@+OOXXX +@@",
"@+OOXX..+@@@@@@@@@@@+Oo.. ++Oo.+@@@@@@@@+OXXXX +@@",
"@+OOooX.+@@@@@@@@@@+Oo.. +@+Oo.+@@@@@@@+OOXXX. +@@",
"@@+OooX..+@@@@@@+++Oo..  +@+Oo.+@@@@@@+OOXXXX  +@@",
"@@+oOooX..++++++OOOXX.. +@@+Oo.+@@@@@+OOXXXX  +@@@",
"@@@+OOoX..   ooOOooX.. +@@@+Oo..+@@++OOXXXX.  +@@@",
"@@@@+XXXX..  .oooXXX. +@@@@+XX...++OOOXXXX.   +@@@",
"@@@@+XXX......XoXX.. +@@@@@@+XX..OO..XXXX    +@@@@",
"@@@@@+  XX....o....  +@@@@@@@+XXX...X..    ++@@@@@",
"@@@@@@++ XX...     ++@@@@@@@@@+  X.       +@@@@@@@",
"@@@@@@@@+        ++@@@@@@@@@@@@++       ++@@@@@@@@",
"@@@@@@@@@++++++++@@@@@@@@@@@@@@@@+++++++@@@@@@@@@@",
"@@@@@@@@@@@@@@@@@@@@@@@@@@@@@@@@@@@@@@@@@@@@@@@@@@",
"@@@@@@@@@@@@@@@@@@@@@@@@@@@@@@@@@@@@@@@@@@@@@@@@@@"
};
